<svg enable-background="new 0 0 128 128" viewBox="0 0 128 128" xmlns="http://www.w3.org/2000/svg" xmlns:xlink="http://www.w3.org/1999/xlink"><radialGradient id="a" cx="59.468" cy="-5.1766" gradientUnits="userSpaceOnUse" r="120.22"><stop offset=".2636" stop-color="#e3f2fd"/><stop offset=".9167" stop-color="#90caf9"/></radialGradient><path d="m106.97 39.56c-.68 0-1.35.05-2 .13.52-1.75.81-3.59.81-5.51 0-10.68-8.66-19.34-19.34-19.34-4.55 0-8.72 1.58-12.02 4.21-4.45-8.43-13.29-14.18-23.48-14.18-14.64 0-26.52 11.87-26.52 26.52 0 .53.02 1.05.05 1.57-11.03 1.35-19.58 10.75-19.58 22.15 0 12.2 9.79 22.11 21.94 22.32 4.07 7.07 12.18 11.92 21.55 11.99 9.06.07 17-4.35 21.3-10.98 3.46 3.79 8.43 6.18 13.96 6.18 7.93 0 14.71-4.88 17.53-11.79 1.81.65 3.76 1.02 5.79 1.02 9.47 0 17.15-7.68 17.15-17.15 0-9.46-7.68-17.14-17.14-17.14z" fill="url(#a)"/><path d="m50.94 7.87c8.75 0 16.73 4.82 20.81 12.57.42.79 1.16 1.35 2.04 1.54.2.04.41.06.62.06.67 0 1.33-.23 1.87-.65 2.92-2.32 6.43-3.55 10.15-3.55 9.01 0 16.34 7.33 16.34 16.34 0 1.56-.23 3.13-.68 4.66-.29.97-.07 2.01.58 2.78.57.68 1.42 1.07 2.3 1.07.12 0 .23-.01.35-.02.62-.07 1.16-.11 1.66-.11 7.8 0 14.15 6.35 14.15 14.15s-6.35 14.15-14.15 14.15c-1.61 0-3.21-.29-4.78-.85-.33-.12-.68-.18-1.01-.18-1.19 0-2.3.71-2.78 1.87-2.46 6.03-8.25 9.92-14.76 9.92-4.45 0-8.74-1.9-11.76-5.21-.57-.63-1.38-.98-2.22-.98-.08 0-.16 0-.25.01-.93.08-1.77.37-2.27 1.15-3.85 5.93-10.96 9.41-18.56 9.41h-.19c-8.01 0-15.28-3.87-18.97-10.28-.53-.91-1.49-1.38-2.55-1.4-10.47-.18-18.99-8.79-18.99-19.26 0-9.74 7.29-17.95 16.95-19.14 1.57-.19 2.72-1.56 2.63-3.14-.03-.52-.05-.98-.05-1.4.01-12.96 10.56-23.51 23.52-23.51m0-3c-14.64 0-26.52 11.87-26.52 26.52 0 .53.02 1.06.05 1.58-11.03 1.35-19.58 10.74-19.58 22.14 0 12.2 9.79 21.89 21.94 22.1 4.07 7.07 12.17 11.79 21.55 11.79h.21c8.98 0 16.82-4.2 21.08-10.78 3.46 3.79 8.43 6.29 13.98 6.29 7.93 0 14.71-4.82 17.53-11.74 1.81.65 3.76 1.05 5.79 1.05 9.47 0 17.15-7.66 17.15-17.13s-7.68-17.14-17.15-17.14c-.68 0-1.35.05-2 .13.52-1.75.81-3.59.81-5.51 0-10.68-8.66-19.34-19.34-19.34-4.55 0-8.72 1.58-12.02 4.21-4.45-8.42-13.29-14.17-23.48-14.17z" fill="#424242" opacity=".2"/><path d="m97.36 119.15c-1.78 3.88-6.36 5.58-10.24 3.8s-5.58-6.36-3.8-10.24 13.36-11.57 13.36-11.57 2.46 14.13.68 18.01z" fill="#64b5f6"/><path d="m97.36 119.15c-1.78 3.88-6.36 5.58-10.24 3.8s-5.58-6.36-3.8-10.24 13.36-11.57 13.36-11.57 2.46 14.13.68 18.01z" fill="#90caf9"/><path d="m25.59 96.63c-1.78 3.88-6.36 5.58-10.24 3.8s-5.58-6.36-3.8-10.24 13.36-11.57 13.36-11.57 2.46 14.13.68 18.01z" fill="#64b5f6"/><path d="m23.42 82.08c.74 5.36 1.22 11.83.35 13.72-.93 2.03-2.97 3.34-5.21 3.34-.82 0-1.62-.18-2.38-.52-1.39-.64-2.45-1.78-2.98-3.21s-.47-2.99.16-4.38c.89-1.91 5.79-5.9 10.06-8.95m1.49-3.46s-11.58 7.7-13.36 11.57c-1.78 3.88-.08 8.46 3.8 10.24 1.04.48 2.14.71 3.21.71 2.93 0 5.72-1.67 7.02-4.5 1.79-3.89-.67-18.02-.67-18.02z" fill="#424242" opacity=".2"/><path d="m39.66 119.15c-1.78 3.88-6.36 5.58-10.24 3.8s-5.58-6.36-3.8-10.24 13.36-11.57 13.36-11.57 2.46 14.13.68 18.01z" fill="#90caf9"/><path d="m37.5 104.59c.74 5.36 1.22 11.83.35 13.72-.93 2.03-2.97 3.34-5.21 3.34-.82 0-1.62-.18-2.38-.52-2.87-1.32-4.13-4.72-2.82-7.59.88-1.91 5.78-5.89 10.06-8.95m1.48-3.45s-11.58 7.7-13.36 11.57c-1.78 3.88-.08 8.46 3.8 10.24 1.04.48 2.14.71 3.21.71 2.93 0 5.72-1.67 7.02-4.5 1.79-3.89-.67-18.02-.67-18.02z" fill="#424242" opacity=".2"/><path d="m69.22 107.89c-1.78 3.88-6.36 5.58-10.24 3.8s-5.58-6.36-3.8-10.24 13.36-11.57 13.36-11.57 2.46 14.13.68 18.01z" fill="#64b5f6"/><path d="m67.05 93.33c.74 5.36 1.22 11.83.35 13.72-.93 2.03-2.97 3.34-5.21 3.34-.82 0-1.62-.18-2.38-.52-2.87-1.32-4.13-4.72-2.82-7.59.88-1.91 5.78-5.89 10.06-8.95m1.49-3.45s-11.58 7.7-13.36 11.57c-1.78 3.88-.08 8.46 3.8 10.24 1.04.48 2.14.71 3.22.71 2.93 0 5.72-1.67 7.02-4.5 1.78-3.89-.68-18.02-.68-18.02z" fill="#424242" opacity=".2"/><path d="m115.66 96.63c-1.78 3.88-6.36 5.58-10.24 3.8s-5.58-6.36-3.8-10.24 13.36-11.57 13.36-11.57 2.46 14.13.68 18.01z" fill="#64b5f6"/><g fill="#424242"><path d="m113.49 82.08c.74 5.36 1.22 11.83.35 13.72-.93 2.03-2.97 3.34-5.21 3.34-.82 0-1.62-.18-2.38-.52-2.87-1.32-4.13-4.72-2.82-7.59.88-1.91 5.78-5.9 10.06-8.95m1.49-3.46s-11.58 7.7-13.36 11.57c-1.78 3.88-.08 8.46 3.8 10.24 1.04.48 2.14.71 3.21.71 2.93 0 5.72-1.67 7.02-4.5 1.79-3.89-.67-18.02-.67-18.02z" opacity=".2"/><g opacity=".2"><path d="m95.2 104.59c.74 5.36 1.22 11.83.35 13.72-.93 2.03-2.97 3.34-5.21 3.34-.82 0-1.62-.18-2.38-.52-1.39-.64-2.45-1.78-2.98-3.21s-.47-2.99.16-4.38c.88-1.91 5.78-5.89 10.06-8.95m1.48-3.45s-11.58 7.7-13.36 11.57c-1.78 3.88-.08 8.46 3.8 10.24 1.04.48 2.14.71 3.21.71 2.93 0 5.72-1.67 7.02-4.5 1.79-3.89-.67-18.02-.67-18.02z"/><path d="m95.2 104.59c.74 5.36 1.22 11.83.35 13.72-.93 2.03-2.97 3.34-5.21 3.34-.82 0-1.62-.18-2.38-.52-1.39-.64-2.45-1.78-2.98-3.21s-.47-2.99.16-4.38c.88-1.91 5.78-5.89 10.06-8.95m1.48-3.45s-11.58 7.7-13.36 11.57c-1.78 3.88-.08 8.46 3.8 10.24 1.04.48 2.14.71 3.21.71 2.93 0 5.72-1.67 7.02-4.5 1.79-3.89-.67-18.02-.67-18.02z"/></g></g></svg>